<svg width="38" height="38" viewBox="0 0 38 38" fill="none" xmlns="http://www.w3.org/2000/svg">
<path d="M7.8335 31.6667H30.1668C30.9953 31.6667 31.6668 30.9951 31.6668 30.1667V12.9028C31.6668 12.7475 31.6307 12.5944 31.5613 12.4556L29.0529 7.43895C28.7142 6.76138 28.0216 6.33337 27.2641 6.33337H10.7362C9.97869 6.33337 9.28616 6.76138 8.94738 7.43895L6.43907 12.4556C6.36964 12.5944 6.3335 12.7475 6.3335 12.9028V30.1667C6.3335 30.9951 7.00507 31.6667 7.8335 31.6667Z" stroke="#0B2027" stroke-width="2" stroke-linecap="round"/>
<path d="M7.9165 12.6666H30.0832" stroke="#0B2027" stroke-width="2" stroke-linecap="round" stroke-linejoin="round"/>
<path d="M15.8333 6.33337L14.25 12.6667V22.1667L19 19L23.75 22.1667V12.6667L22.1667 6.33337" stroke="#0B2027" stroke-width="2" stroke-linecap="round" stroke-linejoin="round"/>
</svg>
