<svg width="46" height="46" viewBox="0 0 46 46" fill="none" xmlns="http://www.w3.org/2000/svg">
<circle cx="22.9998" cy="23" r="23" fill="#3464DD"/>
<path d="M36 25.5C36.8284 25.5 37.5 24.8284 37.5 24C37.5 23.1716 36.8284 22.5 36 22.5L36 25.5ZM8.93934 22.9393C8.35355 23.5251 8.35355 24.4749 8.93934 25.0607L18.4853 34.6066C19.0711 35.1924 20.0208 35.1924 20.6066 34.6066C21.1924 34.0208 21.1924 33.0711 20.6066 32.4853L12.1213 24L20.6066 15.5147C21.1924 14.9289 21.1924 13.9792 20.6066 13.3934C20.0208 12.8076 19.0711 12.8076 18.4853 13.3934L8.93934 22.9393ZM36 22.5L10 22.5L10 25.5L36 25.5L36 22.5Z" fill="#FBFCEC"/>
</svg>
