<svg width="38" height="38" viewBox="0 0 38 38" fill="none" xmlns="http://www.w3.org/2000/svg">
<path d="M22.9582 33.25V24.75C22.9582 24.1977 22.5105 23.75 21.9582 23.75H16.0415C15.4892 23.75 15.0415 24.1977 15.0415 24.75V33.25" stroke="#0B2027" stroke-width="2" stroke-linecap="round" stroke-linejoin="round"/>
<path d="M7.9165 17.4166V29.25C7.9165 31.1356 7.9165 32.0784 8.50229 32.6642C9.08808 33.25 10.0309 33.25 11.9165 33.25H26.0832C27.9688 33.25 28.9116 33.25 29.4974 32.6642C30.0832 32.0784 30.0832 31.1356 30.0832 29.25V17.4166" stroke="#0B2027" stroke-width="2"/>
<path d="M7.53793 6.26493C7.71982 5.53737 7.81077 5.17359 8.08203 4.96179C8.35329 4.75 8.72827 4.75 9.47822 4.75H28.5218C29.2717 4.75 29.6467 4.75 29.918 4.96179C30.1892 5.17359 30.2802 5.53737 30.4621 6.26493L32.6287 14.9316C32.9147 16.0755 33.0577 16.6475 32.7574 17.0321C32.4572 17.4167 31.8676 17.4167 30.6884 17.4167H30.3052C28.6868 17.4167 27.8777 17.4167 27.3182 16.9427C26.7587 16.4687 26.6257 15.6706 26.3596 14.0743L26.3223 13.8503C26.2472 13.4001 26.2097 13.1749 26.125 13.1749C26.0403 13.1749 26.0028 13.4001 25.9277 13.8503L25.7889 14.6835C25.6211 15.6901 25.5372 16.1935 25.2764 16.5653C25.0791 16.8465 24.8127 17.0721 24.5029 17.2205C24.0932 17.4167 23.583 17.4167 22.5625 17.4167V17.4167C21.542 17.4167 21.0318 17.4167 20.6221 17.2205C20.3123 17.0721 20.0459 16.8465 19.8486 16.5653C19.5878 16.1935 19.5039 15.6901 19.3361 14.6835L19.1973 13.8503C19.1222 13.4001 19.0847 13.1749 19 13.1749C18.9153 13.1749 18.8778 13.4001 18.8027 13.8503L18.6639 14.6835C18.4961 15.6901 18.4122 16.1935 18.1514 16.5653C17.9541 16.8465 17.6877 17.0721 17.3779 17.2205C16.9682 17.4167 16.458 17.4167 15.4375 17.4167V17.4167C14.417 17.4167 13.9068 17.4167 13.4971 17.2205C13.1873 17.0721 12.9209 16.8465 12.7236 16.5653C12.4628 16.1935 12.3789 15.6901 12.2111 14.6835L12.0723 13.8503C11.9972 13.4001 11.9597 13.1749 11.875 13.1749C11.7903 13.1749 11.7528 13.4001 11.6777 13.8503L11.6404 14.0743C11.3743 15.6706 11.2413 16.4687 10.6818 16.9427C10.1223 17.4167 9.31317 17.4167 7.69483 17.4167H7.31155C6.13242 17.4167 5.54285 17.4167 5.24257 17.0321C4.94229 16.6475 5.08529 16.0755 5.37127 14.9316L7.53793 6.26493Z" stroke="#0B2027" stroke-width="2"/>
</svg>
