<svg width="72" height="81" viewBox="0 0 72 81" fill="none" xmlns="http://www.w3.org/2000/svg">
<path d="M36 77.25V44.25M36 77.25L3.94 57.2125C3.48048 56.9253 3.25072 56.7817 3.12536 56.5555C3 56.3294 3 56.0584 3 55.5165V23.625M36 77.25L52.5 66.9375L68.06 57.2125C68.5195 56.9253 68.7493 56.7817 68.8746 56.5555C69 56.3294 69 56.0584 69 55.5165V23.625M36 44.25L3 23.625M36 44.25L69 23.625M3 23.625L34.94 3.66251C35.4555 3.34034 35.7132 3.17926 36 3.17926C36.2868 3.17926 36.5445 3.34034 37.06 3.66251L69 23.625" stroke="#3464DD" stroke-width="6" stroke-linejoin="round"/>
<path d="M49.499 50.4376C49.499 52.0944 50.8422 53.4376 52.499 53.4376C54.1559 53.4376 55.499 52.0944 55.499 50.4376H49.499ZM51.559 33.3501L49.969 35.894L51.559 33.3501ZM52.3737 34.007L54.9976 32.5527L52.3737 34.007ZM19.499 13.3126L17.909 15.8565L49.969 35.894L51.559 33.3501L53.149 30.8061L21.089 10.7686L19.499 13.3126ZM52.499 50.4376H55.499V35.046H52.499H49.499V50.4376H52.499ZM51.559 33.3501L49.969 35.894C50.0907 35.9701 50.1655 36.017 50.2254 36.056C50.2849 36.0947 50.2886 36.0993 50.2665 36.0824C50.2419 36.0635 50.1619 36.0003 50.063 35.8942C49.957 35.7804 49.8464 35.6357 49.7497 35.4613L52.3737 34.007L54.9976 32.5527C54.6659 31.9543 54.238 31.5667 53.9168 31.3205C53.6462 31.1131 53.3309 30.9197 53.149 30.8061L51.559 33.3501ZM52.499 35.046H55.499C55.499 34.8315 55.5022 34.4617 55.4697 34.1224C55.4312 33.7194 55.3293 33.1512 54.9976 32.5527L52.3737 34.007L49.7497 35.4613C49.6531 35.2869 49.589 35.1165 49.5487 34.9663C49.5111 34.8262 49.5 34.7249 49.497 34.6939C49.4944 34.6663 49.4963 34.6718 49.4976 34.7428C49.4989 34.8143 49.499 34.9025 49.499 35.046H52.499Z" fill="#3464DD"/>
</svg>
