<svg width="32" height="32" viewBox="0 0 32 32" fill="none" xmlns="http://www.w3.org/2000/svg">
<path d="M16.3639 28V17.3333M16.3639 28L6.63727 21.9208C6.17774 21.6336 5.94798 21.49 5.82262 21.2639C5.69727 21.0377 5.69727 20.7667 5.69727 20.2248V10.6667M16.3639 28L21.6973 24.6667L26.0906 21.9208C26.5501 21.6336 26.7799 21.49 26.9052 21.2639C27.0306 21.0377 27.0306 20.7667 27.0306 20.2248V10.6667M16.3639 17.3333L5.69727 10.6667M16.3639 17.3333L27.0306 10.6667M5.69727 10.6667L15.3039 4.6625C15.8194 4.34033 16.0771 4.17925 16.3639 4.17925C16.6507 4.17925 16.9085 4.34033 17.4239 4.6625L27.0306 10.6667" stroke="#0B2027" stroke-width="2" stroke-linejoin="round"/>
<path d="M20.6969 19.3333C20.6969 19.8856 21.1447 20.3333 21.6969 20.3333C22.2492 20.3333 22.6969 19.8856 22.6969 19.3333H20.6969ZM20.7569 13.4125L20.2269 14.2605L20.7569 13.4125ZM21.5716 14.0695L20.6969 14.5543L21.5716 14.0695ZM10.5003 8.18134L20.2269 14.2605L21.2869 12.5645L11.5603 6.48535L10.5003 8.18134ZM22.6969 19.3333V15.1085H20.6969V19.3333H22.6969ZM20.2269 14.2605C20.4727 14.4141 20.5973 14.4932 20.6812 14.5575C20.7482 14.6089 20.7239 14.603 20.6969 14.5543L22.4462 13.5847C22.2939 13.3098 22.0921 13.119 21.8979 12.9702C21.7207 12.8344 21.5007 12.6981 21.2869 12.5645L20.2269 14.2605ZM22.6969 15.1085C22.6969 14.8564 22.698 14.5976 22.6767 14.3753C22.6534 14.1319 22.5986 13.8596 22.4462 13.5847L20.6969 14.5543C20.67 14.5056 20.6778 14.4818 20.6858 14.5659C20.6959 14.6711 20.6969 14.8187 20.6969 15.1085H22.6969Z" fill="#0B2027"/>
</svg>
